<?xml version="1.0" encoding="utf-8"?>
<!-- Generator: Adobe Illustrator 27.5.0, SVG Export Plug-In . SVG Version: 6.00 Build 0)  -->
<svg version="1.1" id="Layer_1" xmlns="http://www.w3.org/2000/svg" xmlns:xlink="http://www.w3.org/1999/xlink" x="0px" y="0px"
	 viewBox="0 0 5000 5000" style="enable-background:new 0 0 5000 5000;" xml:space="preserve">
<rect style="fill:#32657C;" width="5000" height="5000"/>
<path style="fill:#224656;" d="M3661,3945.171c0,71.702,58.126,129.829,129.829,129.829h956.342
	c71.702,0,129.829-58.127,129.829-129.829v-0.342c0-71.702-58.127-129.829-129.829-129.829h-956.342
	c-71.703,0-129.829,58.127-129.829,129.829V3945.171z"/>
<path style="fill:#224656;" d="M627,4388c0,138.071,111.929,250,250,250h1945c138.071,0,250-111.929,250-250l0,0
	c0-138.071-111.929-250-250-250H877C738.929,4138,627,4249.929,627,4388L627,4388z"/>
<path style="fill:#224656;" d="M261,3977c0-106.039,85.961-192,192-192h3952c106.038,0,192,85.961,192,192l0,0
	c0,106.039-85.962,192-192,192H453C346.961,4169,261,4083.039,261,3977L261,3977z"/>
<g>
	<path style="fill:#DBEDF7;" d="M3192.669,3439.518v217.124c0,83.298-55.651,150.826-124.332,150.826h-580.878
		c-68.66,0-124.33-67.528-124.33-150.826v-217.124H3192.669z"/>
	<path style="fill:#B6C9D7;" d="M2363.129,3425.3c0-83.304,55.67-150.842,124.33-150.842h580.878
		c68.681,0,124.332,67.538,124.332,150.842v14.218h-829.54V3425.3z"/>
</g>
<g>
	<g>
		<path style="fill:#FEFFFF;" d="M1285.979,3251.654c0,83.284,67.517,150.823,150.822,150.823H4118.99
			c83.306,0,150.824-67.539,150.824-150.823V1446.168c0-83.292-67.519-150.821-150.824-150.821H1436.802
			c-83.306,0-150.822,67.528-150.822,150.821V3251.654z"/>
		<polygon style="fill:#FFFFFD;" points="2364.033,3677.686 3191.767,3677.686 3586.264,3944.178 1969.526,3944.178 		"/>
		<rect x="2474.722" y="3255.883" style="fill:#FFFFFF;" width="606.35" height="44.101"/>
	</g>
</g>
<path style="fill:#5EB4CB;" d="M1553.782,1452.763h2396.409c74.429,0,134.746,54.667,134.746,122.098v1461.475
	c0,67.41-60.317,122.068-134.746,122.068H1553.782c-74.43,0-134.764-54.658-134.764-122.068V1574.861
	C1419.019,1507.43,1479.353,1452.763,1553.782,1452.763 M1553.782,1426.838c-42.444,0-82.469,15.085-112.698,42.475
	c-14.948,13.542-26.711,29.374-34.966,47.056c-8.642,18.513-13.024,38.19-13.024,58.492v1461.475
	c0,20.296,4.383,39.971,13.025,58.479c8.254,17.68,20.02,33.509,34.966,47.048c30.231,27.386,70.254,42.467,112.697,42.467h2396.409
	c42.442,0,82.463-15.082,112.69-42.469c14.944-13.539,26.706-29.368,34.961-47.048c8.64-18.507,13.021-38.182,13.021-58.478
	V1574.861c0-20.3-4.381-39.979-13.021-58.49c-8.253-17.681-20.015-33.513-34.959-47.056
	c-30.227-27.391-70.249-42.477-112.692-42.477H1553.782L1553.782,1426.838z"/>
<g>
	<path style="fill:#8DC8D6;" d="M1553.782,1453h2396.409c74.428,0,134.809,54.43,134.809,121.861v1461.475
		c0,35.284-16.565,67.071-42.992,89.358L1462.499,1485.18C1486.508,1465.132,1518.557,1453,1553.782,1453z"/>
	<path style="fill:#85BFCB;" d="M1462.387,1485.062l2579.542,1640.762c-24.06,20.29-56.269,32.836-91.737,32.836H1553.782
		c-74.43,0-134.956-54.913-134.956-122.323V1574.861C1418.826,1539.344,1435.666,1507.374,1462.387,1485.062z"/>
</g>
<g>
	<path style="fill:#FFFFFF;" d="M1710.197,3223.575c0-346.646-281.047-627.739-627.699-627.739
		c-188.164,0-356.971,82.844-472.021,214.016l-170.434-154.748c157.359-177.656,387.031-289.856,642.456-289.856
		c473.282,0,858.327,385.032,858.327,858.302c0,225.754-87.659,431.389-230.672,584.772l-170.433-154.746
		C1645.411,3541.245,1710.197,3389.991,1710.197,3223.575z"/>
	<path style="fill:#F2F2F2;" d="M1082.499,4081.842c-473.253,0-858.269-385.029-858.269-858.293
		c0-217.837,81.615-416.938,215.813-568.445l170.434,154.748c-96.901,110.482-155.674,255.24-155.674,413.724
		c0,346.683,281.046,627.681,627.695,627.681c180.25,0,342.739-76.001,457.224-197.681l170.433,154.746
		C1553.359,3976.49,1330.018,4081.842,1082.499,4081.842z"/>
	<path style="fill:#BE2626;" d="M725.9,3223.575c0,196.919,159.663,356.553,356.598,356.553
		c100.692,0,191.619-41.737,256.465-108.833l200.759,182.28c-114.484,121.68-276.974,197.681-457.224,197.681
		c-346.649,0-627.695-280.998-627.695-627.681c0-158.483,58.773-303.241,155.674-413.724l200.745,182.27
		C758.033,3054.413,725.9,3135.234,725.9,3223.575z"/>
	<path style="fill:#CB2627;" d="M1082.498,2595.836c346.652,0,627.699,281.094,627.699,627.739c0,166.416-64.786,317.67-170.476,430
		l-200.759-182.28c61.994-64.148,100.148-151.474,100.148-247.72c0-196.976-159.656-356.63-356.613-356.63
		c-108.612,0-205.873,48.576-271.276,125.176l-200.745-182.27C725.527,2678.68,894.334,2595.836,1082.498,2595.836z"/>
	<path style="fill:#FFFFFF;" d="M1245.271,3223.562c0-89.897-72.861-162.757-162.749-162.757
		c-51.729,0-97.787,24.167-127.597,61.795l-143.704-130.479c65.403-76.6,162.664-125.176,271.276-125.176
		c196.957,0,356.613,159.654,356.613,356.63c0,96.246-38.154,183.571-100.148,247.72l-143.679-130.457
		C1226.078,3311.231,1245.271,3269.65,1245.271,3223.562z"/>
	<path style="fill:#F2F2F2;" d="M1082.498,3580.128c-196.935,0-356.598-159.634-356.598-356.553
		c0-88.341,32.133-169.162,85.321-231.454L954.926,3122.6c-21.982,27.75-35.146,62.807-35.146,100.962
		c0,89.868,72.866,162.724,162.743,162.724c43.79,0,83.509-17.324,112.762-45.447l143.679,130.457
		C1274.117,3538.391,1183.19,3580.128,1082.498,3580.128z"/>
	<path style="fill:#BE2626;" d="M1082.522,3386.285c-89.877,0-162.743-72.855-162.743-162.724
		c0-38.155,13.164-73.212,35.146-100.962l240.358,218.238C1166.031,3368.961,1126.313,3386.285,1082.522,3386.285z"/>
	<path style="fill:#CB2627;" d="M1082.522,3060.805c89.888,0,162.749,72.859,162.749,162.757c0,46.089-19.193,87.67-49.987,117.276
		L954.926,3122.6C984.735,3084.972,1030.794,3060.805,1082.522,3060.805z"/>
	<path style="fill:#7A7B7B;" d="M155.475,3287.797v-26.313c0,0,17.4-22.486,17.309-37.938c-0.095-15.454-13.9-19.401-2.392-19.471
		l17.563-35.881v-97.476l55.769,1.908l87.743,121.678l728.833-4.41c11.511-0.07,20.916,12.401,21.008,27.855
		c0.095,15.452-9.158,28.037-20.666,28.106l-741.585,5.661l-73.515,124.853l-57.587-0.815L155.475,3287.797z"/>
	<path style="fill:#162B35;" d="M224.84,2861.203c39.629-93.7,93.766-179.283,161.17-255.159l26.875,24.401l27.158,24.658
		C305.846,2806.61,224.23,3005.712,224.23,3223.549c0,473.264,385.016,858.293,858.269,858.293
		c247.519,0,470.86-105.352,627.655-273.521l27.152,24.654l26.864,24.393c-7.671,8.237-15.45,16.395-23.441,24.385
		c-85.481,85.479-185.028,152.591-295.88,199.475c-114.787,48.55-236.701,73.168-362.351,73.168
		c-125.647,0-247.552-24.618-362.332-73.168c-110.849-46.884-210.389-113.996-295.862-199.475
		c-85.473-85.476-152.582-185.021-199.465-295.868c-48.548-114.783-73.163-236.688-73.163-362.336
		C151.677,3097.898,176.292,2975.984,224.84,2861.203z"/>
	<path style="fill:#162B35;" d="M424.305,2565.33c85.471-85.477,185.014-152.589,295.862-199.474
		c114.778-48.549,236.685-73.164,362.332-73.164c125.65,0,247.563,24.615,362.349,73.164
		c110.854,46.885,210.4,113.997,295.882,199.474c85.479,85.475,152.593,185.021,199.482,295.871
		c48.55,114.783,73.168,236.697,73.168,362.348c0,125.647-24.618,247.555-73.168,362.337
		c-42.504,100.484-101.684,191.637-176.041,271.482l-26.864-24.393l-27.152-24.654c143.013-153.384,230.672-359.019,230.672-584.772
		c0-473.27-385.045-858.302-858.327-858.302c-255.425,0-485.097,112.2-642.456,289.856l-27.158-24.658l-26.875-24.401
		C398.35,2592.157,411.08,2578.557,424.305,2565.33z"/>
	<polygon style="fill:#1BB7D0;" points="559.084,2689.282 583.077,2541.199 378.002,2333.428 340.568,2473.395 	"/>
	<polygon style="fill:#179BB9;" points="155.475,2537.009 303.745,2514.213 511.625,2721.063 369.584,2757.264 	"/>
	<path style="fill:#787370;" d="M269.771,2442.785c-10.861,10.992-13.029,26.461-4.843,34.551l773.304,764.002
		c8.188,8.089,23.631,5.734,34.492-5.26l0,0c10.858-10.992,13.027-26.461,4.841-34.55L304.26,2437.523
		C296.074,2429.438,280.633,2431.791,269.771,2442.785L269.771,2442.785z"/>
</g>
<g>
	<path style="fill:#217E99;" d="M1275.894,3122.079v1174.198h1225.704c64.67,141.466,122.916,192.087,122.916,192.087
		c-19.729-157.621,138.876-192.087,138.876-192.087V3122.079H1275.894z"/>
	<g>
		<path style="fill:#2897CD;" d="M2494.205,3122.069H1279.862c0,0,102.18,47.558,87.479,99.187v92.912h1126.863v-84.734h0.595
			c-1.152-33.701,60.973-72.645,277.5-107.364H2494.205z"/>
		<path style="fill:#1A6071;" d="M2494.8,3229.434h-0.595v84.734h130.309C2624.514,3314.168,2496.477,3277.021,2494.8,3229.434z"/>
	</g>
	<path style="fill:#1A6071;" d="M1137.024,3314.168h230.317v-92.912C1357.912,3254.375,1300.565,3289.148,1137.024,3314.168z"/>
	<g>
		<g>
			<g>
				<path style="fill:#FFFFFF;" d="M1958.516,2892.889c-1.312,3.271-2.719,6.286-4.174,9.143l541.37,217.022l6.339-14.915
					l-541.582-217.105C1959.836,2888.979,1959.315,2890.896,1958.516,2892.889z"/>
				<path style="fill:#FFFFFF;" d="M1961.404,2884.236l541.795,217.193l3.456-8.136l-543.257-217.778
					C1962.898,2878.364,1962.267,2881.258,1961.404,2884.236z"/>
				<path style="fill:#FFFFFF;" d="M1890.97,2941.65l-0.824,10.928l24.263,48.828l364.884,133.24c0,0,116.899,40.937,119.655,41.452
					c2.758,0.518,52.297-15.177,52.297-15.177l36.782-23.77l3.081-7.253l-542.83-217.607
					C1924.615,2947.089,1890.97,2941.65,1890.97,2941.65z"/>
				<path style="fill:#FFFFFF;" d="M1963.971,2872.572l543.838,218.009l11.831-27.851l-53.668-64.178l-516.779-203.605l-14.4,4.891
					C1934.792,2799.838,1970.067,2828.008,1963.971,2872.572z"/>
				<polygon style="fill:#DBD2B5;" points="2506.413,3136.037 2510.798,3125.102 2495.712,3119.054 2491.107,3129.899 				"/>
				<path style="fill:#B6AF9C;" d="M1948.277,2912.292l542.83,217.607l4.604-10.846l-541.37-217.022
					C1952.425,2905.813,1950.391,2909.193,1948.277,2912.292z"/>
				<polygon style="fill:#DBD2B5;" points="2503.155,3104.582 2504.253,3101.851 2503.199,3101.43 2502.051,3104.139 				"/>
				<path style="fill:#B6AF9C;" d="M1960.469,2887.033l541.582,217.105l1.148-2.709l-541.795-217.193
					C1961.142,2885.154,1960.773,2886.101,1960.469,2887.033z"/>
				<polygon style="fill:#DBD2B5;" points="2515.743,3096.937 2516.839,3094.201 2507.809,3090.581 2506.655,3093.294 				"/>
				<path style="fill:#B6AF9C;" d="M1963.398,2875.516l543.257,217.778l1.153-2.713l-543.838-218.009
					C1963.841,2873.527,1963.565,2874.541,1963.398,2875.516z"/>
			</g>
			<g>
				<path style="fill:#2FB2B2;" d="M2138.312,3784.255c0,0,51.594,41.282,126.479-26.944l179.513-447.801
					c-20.026,3.816-52.083,2.358-101.399-17.412l6.575-16.406c52.903,21.209,85.859,18.082,103.339,12.58l5.271-13.15
					c-18.417,6.32-52.251,8.736-110.014-14.129L2138.312,3784.255z"/>
				<path style="fill:#2FB2B2;" d="M2453.262,3010.456c0,0,63.347,31.728,42.003,84.972
					c-21.345,53.244-82.528,55.656-100.276,48.541l-40.337,100.619c66.38,26.194,100.967,13.881,112.728,7.361l60.656-151.308
					c0,0,36.933-80.273-80.477-127.34l-505.132-202.495l-12.044,30.039L2453.262,3010.456z"/>
				<path style="fill:#A2B743;" d="M2353.063,3243.975l-6.576,16.404c0.542,0.218,1.052,0.402,1.59,0.613l6.575-16.404
					C2354.114,3244.377,2353.604,3244.19,2353.063,3243.975z"/>
				<path style="fill:#31CBD3;" d="M2354.651,3244.588l-6.575,16.404c57.763,22.865,91.597,20.449,110.014,14.129l9.289-23.172
					C2455.618,3258.469,2421.031,3270.782,2354.651,3244.588z"/>
				<path style="fill:#31CBD3;" d="M2342.904,3292.098c49.316,19.771,81.373,21.229,101.399,17.412l8.515-21.238
					c-17.479,5.502-50.436,8.629-103.339-12.58L2342.904,3292.098z"/>
			</g>
			
				<rect x="1665.077" y="3078.177" transform="matrix(0.3721 -0.9282 0.9282 0.3721 -1857.6412 3977.5664)" style="fill:#31CBD3;" width="691.999" height="567.25"/>
			<path style="fill:#119EAC;" d="M2158.867,2950.861c0,0,2.246-76.849,44.399-126.594l-61.54,7.066l-18.288-45.414
				c0,0-57.48,64.227-57.529,127.676L2158.867,2950.861z"/>
		</g>
	</g>
	<g>
		<g>
			<g>
				<path style="fill:#DBD2B5;" d="M1867.747,3088.691c0.7,2.879,1.508,5.557,2.377,8.111l-476.657,115.635l-3.486-13.175
					l476.845-115.682C1867.117,3085.279,1867.322,3086.938,1867.747,3088.691z"/>
				<path style="fill:#DBD2B5;" d="M1866.384,3081.141l-477.031,115.728l-1.9-7.185l478.317-116.039
					C1865.844,3076.076,1866.022,3078.561,1866.384,3081.141z"/>
				<path style="fill:#DBD2B5;" d="M1918.113,3137.384l-0.625,9.195l-26.058,37.729l-319.702,67.092
					c0,0-102.213,20.039-104.568,20.137c-2.355,0.096-41.707-18.913-41.707-18.913l-27.76-24.2l-1.693-6.404l477.939-115.949
					C1889.454,3137.873,1918.113,3137.384,1918.113,3137.384z"/>
				<path style="fill:#DBD2B5;" d="M1865.646,3071.125l-478.828,116.162l-6.504-24.602l52.375-46.976l454.576-107.422l11.399,5.8
					C1898.665,3014.088,1865.922,3033.301,1865.646,3071.125z"/>
				<polygon style="fill:#DBD2B5;" points="1382.521,3225.288 1380.185,3215.66 1393.467,3212.438 1396,3222.02 				"/>
				<path style="fill:#B6AF9C;" d="M1873.939,3106.07L1396,3222.02l-2.533-9.582l476.657-115.635
					C1871.266,3100.178,1872.553,3103.236,1873.939,3106.07z"/>
				<polygon style="fill:#DBD2B5;" points="1389.01,3199.501 1388.424,3197.095 1389.353,3196.868 1389.98,3199.263 				"/>
				<path style="fill:#B6AF9C;" d="M1866.825,3083.581l-476.845,115.682l-0.628-2.395l477.031-115.728
					C1866.49,3081.936,1866.684,3082.771,1866.825,3083.581z"/>
				<polygon style="fill:#DBD2B5;" points="1379.453,3191.625 1378.867,3189.217 1386.818,3187.287 1387.452,3189.684 				"/>
				<path style="fill:#B6AF9C;" d="M1865.77,3073.645l-478.317,116.039l-0.634-2.396l478.828-116.162
					C1865.639,3071.936,1865.746,3072.812,1865.77,3073.645z"/>
			</g>
			<g>
				<path style="fill:#1C727C;" d="M1611.078,3809.017c0,0-47.897,28.167-102.039-37.611l-95.65-394.271
					c16.213,5.579,43.07,8.216,86.49-2.317l-3.503-14.446c-46.58,11.302-73.634,4.742-87.522-1.937l-2.808-11.579
					c14.569,7.473,42.44,13.544,93.265,1.448L1611.078,3809.017z"/>
				<path style="fill:#1C727C;" d="M1441.838,3127.145c0,0-56.533,18.804-45.16,65.684s62.008,56.231,77.635,52.441l21.492,88.592
					c-58.395,13.832-85.702-0.57-94.709-7.408l-32.319-133.219c0,0-21.103-71.249,82.271-96.328l444.75-107.896l6.416,26.446
					L1441.838,3127.145z"/>
				<path style="fill:#A2B743;" d="M1497.202,3333.542l3.505,14.442c-0.478,0.116-0.926,0.209-1.396,0.318l-3.506-14.441
					C1496.277,3333.749,1496.728,3333.656,1497.202,3333.542z"/>
				<path style="fill:#208598;" d="M1495.805,3333.861l3.506,14.441c-50.824,12.096-78.695,6.024-93.265-1.448l-4.95-20.401
					C1410.103,3333.291,1437.41,3347.693,1495.805,3333.861z"/>
				<path style="fill:#208598;" d="M1499.879,3374.816c-43.42,10.533-70.277,7.896-86.49,2.317l-4.535-18.7
					c13.889,6.679,40.942,13.238,87.522,1.937L1499.879,3374.816z"/>
			</g>
			
				<rect x="1529.188" y="3181.704" transform="matrix(0.9718 -0.2358 0.2358 0.9718 -768.8996 514.6534)" style="fill:#208598;" width="477.026" height="581.934"/>
		</g>
	</g>
	<path style="fill:#1C727C;" d="M2002.499,3612.822c1.661-4.138-0.349-8.838-4.488-10.496l-288.431-115.628
		c-4.138-1.658-8.838,0.353-10.497,4.491l-37.539,93.643c-1.661,4.141,0.351,8.839,4.488,10.499l288.431,115.626
		c4.14,1.658,8.839-0.353,10.497-4.489L2002.499,3612.822z"/>
	<g>
		<g>
			<path style="fill:#E0B759;" d="M1347.061,3031.611c75.74,106.617,155.508,142.107,239.611,156.372l44.934,246.162
				l-173.176,107.756l10.104,56.269l236.187-58.711l-193.545-1072.323l-370.714,68.327c0.761,4.715,1.461,9.416,2.31,14.143
				c3.999,22.252,9.026,44.984,14.826,67.953l-149.398,26.838l-2.278,27.648C1005.666,2675.258,984.609,2984.866,1347.061,3031.611z
				 M1082.054,2702.709l95.051-17.072c28.693,90.178,69.057,181.396,116.552,262.893
				C1115.177,2898.965,1086.068,2761.817,1082.054,2702.709z"/>
		</g>
		<path style="fill:#FFCE34;" d="M1685.203,3439.997l0.072-0.202l20.666,115.03l238.962-42.919l-10.767-59.951l-199.512-38.83
			l-5.284-29.41l0.07-0.013l-0.135-0.752l-37.713-213.812c24.896-14.375,47.612-35.608,68.104-62.25
			c40.306-52.404,79.327-83.946,101.806-167.684c323.516-169.975,196.037-452.902,194.663-455.818l-11.759-25.127l-149.389,26.833
			c-2.55-23.547-5.74-46.609-9.737-68.868c-0.852-4.722-1.868-9.368-2.77-14.054l-371.306,64.965L1685.203,3439.997z
			 M1882.633,2842.717c16.145-92.92,22.258-192.488,17.778-287.014l95.027-17.068
			C2012.244,2595.438,2032.69,2734.142,1882.633,2842.717z"/>
		<g>
			
				<rect x="1727.812" y="3548.206" transform="matrix(0.9842 -0.1768 0.1768 0.9842 -617.4679 387.7183)" style="fill:#1C8778;" width="278.366" height="221.301"/>
			
				<rect x="1454.871" y="3597.328" transform="matrix(0.9842 -0.1768 0.1768 0.9842 -630.5267 340.1876)" style="fill:#11695A;" width="277.318" height="221.305"/>
			<path style="fill:#11695A;" d="M1974.632,3469.824c16.579-2.974,32.254,7.029,35.003,22.348
				c2.759,15.322-8.459,30.158-25.038,33.137l-0.173,0.033l-273.982,49.215l-2.843-15.813l-7.126-39.671L1974.632,3469.824z"/>
			<path style="fill:#0E4F43;" d="M1476.44,3841.439l0.182-0.032l272.946-49.034l4.105,22.874l5.86,32.605l-273.129,49.068
				c-16.575,2.973-32.253-7.027-35.004-22.347C1448.648,3859.249,1459.863,3844.418,1476.44,3841.439z"/>
			<path style="fill:#11695A;" d="M2023.548,3743.155l0.178-0.028c16.58-2.98,32.258,7.026,35.01,22.341
				c2.747,15.323-8.464,30.157-25.044,33.134l-274.157,49.251l-5.86-32.605l-4.105-22.874L2023.548,3743.155z"/>
			<path style="fill:#0E4F43;" d="M1427.344,3568.139l273.129-49.065l7.126,39.671l2.843,15.813l-272.952,49.03l-0.178,0.036
				c-16.578,2.979-32.255-7.028-35.003-22.352C1399.555,3585.955,1410.769,3571.117,1427.344,3568.139z"/>
		</g>
		<g>
			<path style="fill:#E0B759;" d="M1605.418,3640.271l112.003-20.121l20.449,113.849l-112.003,20.12
				c-34.011,6.106-66.178-14.422-71.825-45.86C1548.394,3676.826,1571.405,3646.382,1605.418,3640.271z"/>
			<path style="fill:#FFCE34;" d="M1834.62,3599.1c34.032-6.113,66.185,14.416,71.831,45.854
				c5.648,31.435-17.345,61.875-51.381,67.985l-117.2,21.06l-20.449-113.849L1834.62,3599.1z"/>
		</g>
	</g>
	<rect x="1137.024" y="3314.168" style="fill:#3AB2E0;" width="1487.489" height="1174.196"/>
	<path style="fill:#1F434D;" d="M1521.572,3560.398c0,22.826-18.522,41.351-41.362,41.351c-22.815,0-41.325-18.524-41.325-41.351
		c0-22.828,18.51-41.342,41.325-41.342C1503.05,3519.057,1521.572,3537.57,1521.572,3560.398z"/>
	<path style="fill:#1F434D;" d="M2281.866,3560.398c0,22.826-18.516,41.351-41.348,41.351c-22.826,0-41.335-18.524-41.335-41.351
		c0-22.828,18.509-41.342,41.335-41.342C2263.351,3519.057,2281.866,3537.57,2281.866,3560.398z"/>
	<g>
		<g>
			<path style="fill:#1F434D;" d="M2213.141,3585.686v236.433c0,140.263-158.327,254.388-352.906,254.388
				c-194.563,0-352.889-114.125-352.889-254.388v-236.433h-52.734v236.433c0,169.353,181.958,307.122,405.623,307.122
				c223.684,0,405.641-137.77,405.641-307.122v-236.433H2213.141z"/>
		</g>
	</g>
	<g>
		<g>
			<path style="fill:#F2F8EF;" d="M2213.141,3559.325v236.428c0,140.271-158.327,254.38-352.906,254.38
				c-194.563,0-352.889-114.108-352.889-254.38v-236.428h-52.734v236.428c0,169.351,181.958,307.124,405.623,307.124
				c223.684,0,405.641-137.773,405.641-307.124v-236.428H2213.141z"/>
		</g>
	</g>
</g>
<g>
	<path style="fill:#EB6639;" d="M4723.214,3910.403c0,18.654-14.612,33.774-32.636,33.774h-867.355
		c-18.021,0-32.633-15.12-32.633-33.774V2776.768c0-18.652,14.611-33.773,32.633-33.773h867.355
		c18.023,0,32.636,15.121,32.636,33.773V3910.403z"/>
	<g>
		<g>
			<g>
				<rect x="3833.172" y="2781.696" style="fill:#FFFFFF;" width="847.459" height="1123.78"/>
				<g>
					<rect x="3881.729" y="3551.631" style="fill:#8A8387;" width="364.174" height="25.369"/>
					<rect x="3881.729" y="3590.969" style="fill:#8A8387;" width="364.174" height="25.371"/>
					<rect x="3881.729" y="3630.316" style="fill:#8A8387;" width="364.174" height="25.358"/>
					<rect x="3881.729" y="3669.658" style="fill:#8A8387;" width="364.174" height="25.363"/>
					<rect x="3881.729" y="3708.999" style="fill:#8A8387;" width="364.174" height="25.366"/>
					<rect x="3881.729" y="3748.34" style="fill:#8A8387;" width="364.174" height="25.362"/>
					<rect x="3881.729" y="3787.681" style="fill:#8A8387;" width="364.174" height="25.366"/>
					<rect x="3881.729" y="3827.029" style="fill:#8A8387;" width="364.174" height="25.357"/>
				</g>
				<g>
					<rect x="4285.519" y="3551.631" style="fill:#8A8387;" width="364.172" height="25.369"/>
					<rect x="4285.519" y="3590.969" style="fill:#8A8387;" width="364.172" height="25.371"/>
					<rect x="4285.519" y="3630.316" style="fill:#8A8387;" width="364.172" height="25.358"/>
					<rect x="4285.519" y="3669.658" style="fill:#8A8387;" width="364.172" height="25.363"/>
					<rect x="4285.519" y="3708.999" style="fill:#8A8387;" width="364.172" height="25.366"/>
					<rect x="4285.519" y="3748.34" style="fill:#8A8387;" width="364.172" height="25.362"/>
					<rect x="4285.519" y="3787.681" style="fill:#8A8387;" width="364.172" height="25.366"/>
					<rect x="4285.519" y="3827.029" style="fill:#8A8387;" width="364.172" height="25.357"/>
				</g>
				<rect x="3881.729" y="3386.75" style="fill:#EBA8A0;" width="67.033" height="57.979"/>
				<rect x="3881.729" y="3471.098" style="fill:#83CFEE;" width="67.033" height="57.984"/>
				<rect x="4273.982" y="3386.75" style="fill:#C8DB57;" width="67.037" height="57.979"/>
				<rect x="4273.982" y="3471.098" style="fill:#F3BC5A;" width="67.037" height="57.977"/>
				<rect x="3984.997" y="3404.869" style="fill:#C0C0C0;" width="78.814" height="23.551"/>
				<rect x="3984.997" y="3491.838" style="fill:#C0C0C0;" width="78.814" height="21.743"/>
				<rect x="4369.194" y="3404.869" style="fill:#C0C0C0;" width="78.817" height="23.551"/>
				<rect x="4369.194" y="3491.838" style="fill:#C0C0C0;" width="78.817" height="21.748"/>
				<g>
					<g>
						<path style="fill:#8A8387;" d="M4157.767,2849.215c5.155-0.842,11.881-1.295,18.972-1.295c11.784,0,19.427,2.122,25.411,6.629
							c6.45,4.79,10.5,12.429,10.5,23.392c0,11.882-4.326,20.071-10.315,25.142c-6.533,5.428-16.479,8.016-28.636,8.016
							c-7.277,0-12.432-0.468-15.932-0.924V2849.215z M4171.854,2899.858c1.2,0.277,3.127,0.277,4.884,0.277
							c12.706,0.089,20.994-6.913,20.994-21.734c0.096-12.889-7.457-19.704-19.524-19.704c-3.127,0-5.153,0.272-6.354,0.547
							V2899.858z"/>
						<path style="fill:#8A8387;" d="M4234.849,2894.519l-4.424,15.929h-14.549l18.973-62.074h18.416l19.242,62.074h-15.102
							l-4.79-15.929H4234.849z M4250.595,2884.021l-3.87-13.17c-1.105-3.686-2.212-8.289-3.128-11.969h-0.188
							c-0.921,3.68-1.842,8.375-2.853,11.969l-3.687,13.17H4250.595z"/>
						<path style="fill:#8A8387;" d="M4285.129,2860.171h-16.667v-11.798h47.698v11.798h-16.946v50.276h-14.085V2860.171z"/>
						<path style="fill:#8A8387;" d="M4331.447,2894.519l-4.418,15.929h-14.554l18.972-62.074h18.417l19.244,62.074h-15.096
							l-4.792-15.929H4331.447z M4347.198,2884.021l-3.868-13.17c-1.108-3.686-2.216-8.289-3.135-11.969h-0.186
							c-0.922,3.68-1.836,8.375-2.851,11.969l-3.686,13.17H4347.198z"/>
					</g>
				</g>
			</g>
		</g>
		<path style="fill:#F3BC5A;" d="M4430.414,3233.607c0-6.02-3.835-10.915-8.515-10.915h-36.588c-4.727,0-8.543,4.896-8.543,10.915
			v76.606h53.646V3233.607z"/>
		<path style="fill:#C8DB57;" d="M4511.217,3170.648c0-6.207-3.842-11.309-8.557-11.309h-36.572c-4.72,0-8.556,5.102-8.556,11.309
			v139.565h53.685V3170.648z"/>
		<path style="fill:#83CFEE;" d="M4349.063,3262.596c0-5.996-3.813-10.916-8.541-10.916h-36.588c-4.647,0-8.499,4.92-8.499,10.916
			v47.618h53.628V3262.596z"/>
		<path style="fill:#EBA8A0;" d="M4592.479,3106.931c0-6.576-3.847-11.934-8.509-11.934h-36.606c-4.667,0-8.543,5.357-8.543,11.934
			v203.283h53.658V3106.931z"/>
		<g>
			<path style="fill:#C8DB57;" d="M4239.875,3117.993c-2.38-44.87-21.146-85.386-50.446-115.708l-103.466,115.708l-10.43,11.712
				l2.938,7.646l59.564,153.023c57.682-27.87,98.27-85.518,101.84-153.023c0.167-3.196,0.26-6.412,0.26-9.638
				C4240.135,3124.443,4240.042,3121.205,4239.875,3117.993z"/>
			<path style="fill:#EBA8A0;" d="M4049.376,3139.253h-15.012H3871.94h-1.153c2.486,47.413,23.345,90.015,55.538,120.821
				c4.67,4.437,9.561,8.643,14.699,12.64c30.47,23.476,68.677,37.5,110.139,37.5c0.76,0,1.517-0.036,2.28-0.042
				c20.454-0.261,40.089-3.916,58.379-10.447l-59.132-151.948L4049.376,3139.253z"/>
			<path style="fill:#83CFEE;" d="M4042.504,3111.552l-96.861-134.109c-41.543,31.064-69.595,79.163-73.691,133.991
				c-0.004,0.037-0.011,0.079-0.019,0.118h0.008H4042.504z"/>
			<path style="fill:#F3BC5A;" d="M4171.507,2982.607c-31.355-26.209-71.721-42.039-115.788-41.983
				c-1.991,0-3.976,0.046-5.955,0.106c-0.567,0.025-1.14,0.045-1.708,0.072c-1.432,0.06-2.861,0.14-4.28,0.227
				c-1.008,0.074-2.014,0.144-3.018,0.229c-1.34,0.11-2.682,0.234-4.009,0.371c-0.904,0.095-1.8,0.202-2.696,0.312
				c-1.148,0.137-2.294,0.283-3.434,0.443c-0.71,0.092-1.42,0.191-2.127,0.298c-1.917,0.287-3.821,0.608-5.715,0.95
				c-0.18,0.037-0.354,0.07-0.536,0.104c-2.011,0.383-4.012,0.8-5.999,1.253c-1.035,0.224-2.063,0.455-3.087,0.7
				c-0.514,0.126-1.021,0.254-1.529,0.386c-13.304,3.295-26.02,8.068-38.01,14.07c-1.543,0.77-3.063,1.574-4.576,2.387l98.5,136.367
				L4171.507,2982.607z"/>
		</g>
	</g>
	<g>
		<g>
			<path style="fill:#3AB2E0;" d="M4258.444,2528.042c-37.915,0-68.65,30.734-68.65,68.649c0,37.912,30.735,68.648,68.65,68.648
				c37.912,0,68.649-30.736,68.649-68.648C4327.094,2558.776,4296.356,2528.042,4258.444,2528.042z M4258.444,2622.122
				c-14.045,0-25.432-11.387-25.432-25.431c0-14.047,11.387-25.432,25.432-25.432c14.046,0,25.432,11.385,25.432,25.432
				C4283.876,2610.735,4272.49,2622.122,4258.444,2622.122z"/>
			<g>
				<path style="fill:#3AB2E0;" d="M4425.949,2748.445c0,0-44.599-29.734-64.713-50.721
					c-20.114-20.989-35.854-91.824-37.604-103.193c-0.996-6.479-23.575-8.98-42.813-9.936c1.948,3.598,3.057,7.717,3.057,12.096
					c0,14.044-11.386,25.431-25.432,25.431c-14.045,0-25.432-11.387-25.432-25.431c0-4.461,1.152-8.65,3.17-12.294
					c-20.025,0.78-46.249,3.14-47.325,10.134c-1.749,11.369-17.491,82.204-37.604,103.193
					c-20.115,20.986-64.715,50.721-64.715,50.721l17.489,12.243l118.8,6.692l-0.639,3.802l34.056-1.918l34.055,1.918l-0.638-3.802
					l118.798-6.692L4425.949,2748.445z"/>
			</g>
		</g>
	</g>
	<g>
		<path style="fill:#2897CD;" d="M4433.531,2717.889h-354.213c-27.307,0-49.479,22.412-49.893,50.099h453.998
			C4483.008,2740.301,4460.838,2717.889,4433.531,2717.889z"/>
		<path style="fill:#3AB2E0;" d="M4029.426,2767.987c-0.004,0,0.074,0.191,0.074,0.45v0.419c0,27.564,22.253,50.548,49.818,50.548
			h354.213c27.566,0,49.492-22.983,49.492-50.548v-0.419c0-0.259,0.404-0.45,0.4-0.45H4029.426z"/>
	</g>
</g>
<path style="fill:#224656;" d="M4432.642,1251.855L4289.6,1629.708c0,0-218.614,75.566-518.193-62.078
	c-299.58-137.645-369.755-275.289-369.755-275.289l159.237-407.54L4432.642,1251.855z"/>
<path style="fill:#AA8C46;" d="M4486.622,1436.207c3.733,0,7.211-2.364,8.456-6.099l48.58-145.74
	c1.557-4.671-0.969-9.721-5.64-11.279c-4.657-1.554-9.72,0.966-11.276,5.637l-48.58,145.741c-1.557,4.671,0.969,9.72,5.639,11.278
	C4484.734,1436.059,4485.686,1436.207,4486.622,1436.207z"/>
<path style="fill:#93753A;" d="M4476.904,1495.18c0,0-7.627,31.35-14.826,46.171c-7.203,14.827-23.298,59.309-28.383,66.086
	c-5.083,6.777-38.971-30.074-41.936-33.039c-2.965-2.969-28.807-13.986-19.91-24.15c8.896-10.165,61.426-73.278,71.166-78.362
	C4452.758,1466.799,4476.904,1495.18,4476.904,1495.18z"/>
<path style="fill:#AA8C46;" d="M4478.6,1501.957l-40.244-30.918c0,0,31.77-58.034,50.409-49.989
	C4507.404,1429.098,4486.65,1493.061,4478.6,1501.957z"/>
<polygon style="fill:#1A343D;" points="4781.716,1280.071 4813.19,1292.342 4812.049,1306.302 3907.038,1296.464 3226.642,701.325 
	3237.3,687.388 4496.44,1180.062 "/>
<polygon style="fill:#224656;" points="4813.19,1292.342 4138.459,706.676 3234.32,687.784 3911.748,1278.848 "/>
<g>
	<path style="fill:#AA8C46;" d="M4035.627,951.463c21.817-0.657,534.593-14.695,554.297,137.313
		c0.385,2.969-0.852,5.667-2.889,7.562l-16.889-14.46c-33.404-104.48-393.833-116.912-533.971-112.593
		c-4.998,0.126-9.033-3.718-9.186-8.636C4026.838,955.725,4030.706,951.616,4035.627,951.463z"/>
</g>
</svg>
